<svg width="18" height="18" viewBox="0 0 18 18" fill="none" xmlns="http://www.w3.org/2000/svg">
<path d="M2.70012 14.401H6.51615C6.75526 14.4024 6.98518 14.3085 7.15513 14.1401L13.3829 7.90492L15.9389 5.40363C16.1093 5.23462 16.2051 5.0046 16.2051 4.76484C16.2051 4.52489 16.1093 4.29486 15.9389 4.12605L12.1228 0.266155C11.9539 0.0957954 11.7238 0 11.4838 0C11.244 0 11.0139 0.0957992 10.8449 0.266155L8.30699 2.81233L2.06111 9.04754C1.89251 9.21729 1.79864 9.44714 1.8 9.68633V13.5013C1.8 13.7399 1.89492 13.9686 2.06367 14.1374C2.23242 14.3062 2.4613 14.4009 2.7001 14.4009L2.70012 14.401ZM11.484 2.17353L14.0311 4.71986L12.7531 5.99748L10.206 3.4513L11.484 2.17353ZM3.59999 10.0553L8.93713 4.71967L11.4842 7.266L6.14706 12.6012H3.59999V10.0553ZM17.1 16.2006H0.899988C0.57846 16.2006 0.28134 16.372 0.120574 16.6504C-0.0401915 16.9287 -0.0401915 17.2719 0.120574 17.5502C0.28134 17.8286 0.578457 18 0.899988 18H17.1C17.4215 18 17.7187 17.8286 17.8794 17.5502C18.0402 17.2719 18.0402 16.9288 17.8794 16.6504C17.7187 16.372 17.4215 16.2006 17.1 16.2006Z" fill="#393E4F"/>
</svg>
