<svg width="16" height="18" viewBox="0 0 16 18" fill="none" xmlns="http://www.w3.org/2000/svg">
<path d="M7.9942 0C12.1906 0 15.6501 3.3461 15.6501 7.48598C15.6501 9.57212 14.8914 11.5089 13.6426 13.1504C12.265 14.9612 10.567 16.5388 8.65579 17.7772C8.21836 18.0634 7.82358 18.085 7.3435 17.7772C5.42136 16.5388 3.72338 14.9612 2.35755 13.1504C1.10788 11.5089 0.350098 9.57212 0.350098 7.48598C0.350098 3.3461 3.80959 0 7.9942 0ZM7.9942 5.19915C6.60659 5.19915 5.4749 6.34302 5.4749 7.71908C5.4749 9.10594 6.60659 10.1967 7.9942 10.1967C9.38272 10.1967 10.5253 9.10594 10.5253 7.71908C10.5253 6.34302 9.38272 5.19915 7.9942 5.19915Z" fill="#825EF6"/>
</svg>
