<svg width="18" height="18" viewBox="0 0 18 18" fill="none" xmlns="http://www.w3.org/2000/svg">
<path d="M9 6.6C8.34901 6.6 7.72469 6.85286 7.26437 7.30294C6.80406 7.75303 6.54545 8.36348 6.54545 9C6.54545 9.63652 6.80406 10.247 7.26437 10.6971C7.72469 11.1471 8.34901 11.4 9 11.4C9.65099 11.4 10.2753 11.1471 10.7356 10.6971C11.1959 10.247 11.4545 9.63652 11.4545 9C11.4545 8.36348 11.1959 7.75303 10.7356 7.30294C10.2753 6.85286 9.65099 6.6 9 6.6ZM9 13C7.91502 13 6.87448 12.5786 6.10729 11.8284C5.3401 11.0783 4.90909 10.0609 4.90909 9C4.90909 7.93913 5.3401 6.92172 6.10729 6.17157C6.87448 5.42143 7.91502 5 9 5C10.085 5 11.1255 5.42143 11.8927 6.17157C12.6599 6.92172 13.0909 7.93913 13.0909 9C13.0909 10.0609 12.6599 11.0783 11.8927 11.8284C11.1255 12.5786 10.085 13 9 13ZM9 3C4.90909 3 1.41545 5.488 0 9C1.41545 12.512 4.90909 15 9 15C13.0909 15 16.5845 12.512 18 9C16.5845 5.488 13.0909 3 9 3Z" fill="#808191"/>
</svg>
