<svg width="12" height="16" viewBox="0 0 12 16" fill="none" xmlns="http://www.w3.org/2000/svg">
<path d="M6 9.96875C7.65059 9.96875 8.98828 8.64688 8.98828 7.01562V3.07812C8.98828 1.44687 7.65059 0.125 6 0.125C4.34941 0.125 3.01172 1.44687 3.01172 3.07812V7.01562C3.01172 8.64688 4.34941 9.96875 6 9.96875ZM11.8008 6.98047C11.8008 6.90312 11.7375 6.83984 11.6602 6.83984H10.6055C10.5281 6.83984 10.4648 6.90312 10.4648 6.98047C10.4648 9.44668 8.46621 11.4453 6 11.4453C3.53379 11.4453 1.53516 9.44668 1.53516 6.98047C1.53516 6.90312 1.47187 6.83984 1.39453 6.83984H0.339844C0.2625 6.83984 0.199219 6.90312 0.199219 6.98047C0.199219 9.9459 2.42461 12.3928 5.29688 12.7391V14.5391H2.74277C2.50195 14.5391 2.30859 14.7904 2.30859 15.1016V15.7344C2.30859 15.8117 2.35781 15.875 2.41758 15.875H9.58242C9.64219 15.875 9.69141 15.8117 9.69141 15.7344V15.1016C9.69141 14.7904 9.49805 14.5391 9.25723 14.5391H6.63281V12.7479C9.53848 12.4314 11.8008 9.97051 11.8008 6.98047Z" fill="#808191"/>
</svg>
