<svg width="18" height="18" viewBox="0 0 18 18" fill="none" xmlns="http://www.w3.org/2000/svg">
<path d="M11.055 6.75003L10.7955 13.5M7.2045 13.5L6.945 6.75003M14.421 4.34253C14.6775 4.38153 14.9325 4.42277 15.1875 4.46703M14.421 4.34253L13.62 14.7548C13.5873 15.1787 13.3958 15.5747 13.0838 15.8635C12.7717 16.1523 12.3622 16.3127 11.937 16.3125H6.063C5.63782 16.3127 5.22827 16.1523 4.91623 15.8635C4.6042 15.5747 4.41269 15.1787 4.38 14.7548L3.579 4.34253M14.421 4.34253C13.5554 4.21166 12.6853 4.11235 11.8125 4.04478M3.579 4.34253C3.3225 4.38078 3.0675 4.42203 2.8125 4.46628M3.579 4.34253C4.4446 4.21166 5.31468 4.11235 6.1875 4.04478M11.8125 4.04478V3.35778C11.8125 2.47278 11.13 1.73477 10.245 1.70702C9.41521 1.6805 8.58479 1.6805 7.755 1.70702C6.87 1.73477 6.1875 2.47352 6.1875 3.35778V4.04478M11.8125 4.04478C9.94029 3.90008 8.05971 3.90008 6.1875 4.04478" stroke="#FF584D" stroke-width="1.8" stroke-linecap="round" stroke-linejoin="round"/>
</svg>
