<svg width="20" height="20" viewBox="0 0 20 20" fill="none" xmlns="http://www.w3.org/2000/svg">
<rect width="20" height="20" fill="#FFECE6"/>
<path d="M3.86719 3.57905V3.78894H5.47448V2.99805H4.47787C4.14197 2.99773 3.86719 3.25841 3.86719 3.57903V3.57905Z" fill="#FF571A"/>
<path d="M7.34637 12.2294C7.14641 12.2088 6.94291 12.185 6.74295 12.158C6.36086 12.111 5.96769 12.05 5.57885 11.976C5.40028 11.9417 5.22879 11.9046 5.05747 11.8673C4.89306 11.8334 4.72881 11.7968 4.56438 11.7558C4.53236 11.7489 4.49681 11.7424 4.46432 11.7323C4.29298 11.6884 4.12842 11.6444 3.96816 11.6005C3.79636 11.5566 3.62534 11.5026 3.45368 11.445L3.39303 11.4244C3.33576 11.4075 3.27896 11.3869 3.22508 11.3704H3.21784C3.21061 11.3668 3.20368 11.3632 3.19644 11.3632C3.0285 11.3027 2.87856 11.2487 2.73571 11.1942L2.63565 11.1536C2.58947 11.1367 2.54252 11.1165 2.49972 11.0996C2.42799 11.0694 2.35702 11.0391 2.28221 11.0089L2.09255 10.9244C2.0105 10.8902 1.92491 10.8503 1.83916 10.8059C1.71786 10.7455 1.58224 10.6774 1.45323 10.6065C1.32838 10.5356 1.19984 10.461 1.08193 10.387C1.02851 10.3531 0.967856 10.3161 0.907049 10.272C0.899813 10.2685 0.896427 10.2651 0.892578 10.2651V18.1988C0.892578 18.4116 0.981863 18.6113 1.13873 18.7664C1.30022 18.9158 1.51465 19 1.7357 19H8.71107V13.1831H8.13625C7.93967 13.1831 7.77895 13.0305 7.77895 12.8447V12.2736C7.6324 12.2597 7.4897 12.2465 7.34652 12.2294L7.34637 12.2294Z" fill="#FF571A"/>
<path d="M10.4078 8.56162C10.2971 8.45683 10.1544 8.40283 10.0006 8.40283C9.68271 8.40283 9.42578 8.64616 9.42578 8.94687V10.7422H10.5757V8.94687C10.5754 8.79853 10.5148 8.66321 10.4078 8.56163L10.4078 8.56162Z" fill="#FF571A"/>
<path d="M9.42578 13.1831H10.5757V18.9999H9.42578V13.1831Z" fill="#FF571A"/>
<path d="M8.49219 11.4175H11.5063V12.5053H8.49219V11.4175Z" fill="#FF571A"/>
<path d="M13.8109 3.7889V1.57136C13.8109 1.25668 13.5395 1 13.2075 1H6.79288C6.46083 1 6.18945 1.25666 6.18945 1.57136V3.78861H7.02504L7.02489 1.92959C7.02489 1.7438 7.18206 1.59161 7.38218 1.59161H12.6184C12.8184 1.59161 12.9757 1.74396 12.9757 1.92959V3.78906L13.8109 3.7889Z" fill="#FF571A"/>
<path d="M14.5254 2.99706V3.78796H16.1327V3.57806C16.1327 3.25727 15.8579 2.99658 15.522 2.99658L14.5254 2.99674V2.99706Z" fill="#FF571A"/>
<path d="M19.1075 18.1988V10.2651C19.0327 10.3159 18.9721 10.353 18.9076 10.3905C18.8003 10.461 18.6717 10.5356 18.5469 10.6068C18.4179 10.6774 18.2824 10.7458 18.147 10.8132C18.0752 10.8506 17.9898 10.8906 17.9004 10.9276L17.7252 11.0057C17.6431 11.0396 17.5717 11.0698 17.493 11.1036C17.4572 11.1169 17.4107 11.137 17.3643 11.1541L17.2751 11.1915C17.1571 11.2386 17.0392 11.2789 16.9178 11.323L16.8212 11.3572C16.8106 11.3604 16.796 11.3668 16.782 11.3705H16.7748C16.721 11.3874 16.6641 11.408 16.6068 11.4245L16.5461 11.4451C16.3743 11.5023 16.2033 11.5566 16.0209 11.6007C15.871 11.6446 15.7067 11.6886 15.5354 11.7325C15.5034 11.7426 15.4675 11.7493 15.4353 11.7559C15.2705 11.7966 15.1064 11.8337 14.9387 11.8675C14.7707 11.9049 14.5994 11.942 14.4211 11.9761C14.0318 12.0502 13.6391 12.1111 13.2532 12.1582C13.0569 12.1852 12.8533 12.2093 12.6497 12.2296C12.5104 12.2464 12.3677 12.2598 12.2212 12.2734V12.8445C12.2212 13.0306 12.0605 13.1829 11.8639 13.1829H11.2891L11.2892 18.9998H18.2646C18.729 18.9998 19.1077 18.6383 19.1077 18.1987L19.1075 18.1988Z" fill="#FF571A"/>
<path d="M19.7535 4.69483C19.5928 4.54584 19.3822 4.46484 19.1573 4.46484H0.842837C0.378719 4.46484 0 4.8234 0 5.26232V7.85838C0 8.35515 0.264469 8.84195 0.78203 9.30531C0.907184 9.41684 1.03926 9.52163 1.17473 9.61967C1.22507 9.65358 1.26787 9.68733 1.31066 9.71754C1.37485 9.76142 1.42134 9.78842 1.47137 9.81863C1.5859 9.8932 1.69998 9.96086 1.81759 10.025C1.93212 10.0894 2.05343 10.1503 2.18166 10.2111C2.26063 10.2518 2.32482 10.282 2.39271 10.3127L2.58175 10.3937C2.64241 10.4207 2.71414 10.4509 2.78527 10.4816C2.82837 10.4989 2.86732 10.5158 2.90703 10.5292L3.01079 10.5698C3.13563 10.6169 3.27495 10.6674 3.41764 10.7217C3.42488 10.7217 3.43211 10.7252 3.43904 10.7289V10.7254C3.50354 10.746 3.5642 10.7661 3.6287 10.7895L3.68935 10.8064C3.84622 10.8604 4.00355 10.908 4.16411 10.9489C4.33545 10.9997 4.4997 11.0401 4.67134 11.0839C4.67134 11.0839 4.67473 11.0872 4.67858 11.0872C4.69274 11.0872 4.7106 11.0907 4.72476 11.0944C4.88547 11.1379 5.04619 11.1754 5.21753 11.2093C5.38548 11.2467 5.54958 11.2799 5.72137 11.3138C6.09268 11.3851 6.46797 11.4427 6.83928 11.4898C7.03556 11.5168 7.23199 11.5368 7.42856 11.5574C7.54309 11.5708 7.66071 11.5809 7.77863 11.5913V11.0799C7.77863 10.8938 7.93934 10.7422 8.13592 10.7422H8.71074V8.94688C8.71074 8.27443 9.28895 7.7269 10 7.7269C10.3428 7.7269 10.6679 7.85226 10.9107 8.08192C11.1535 8.30837 11.2894 8.61584 11.2894 8.94704V10.7424H11.8642C12.0608 10.7424 12.2215 10.8943 12.2215 11.0801V11.5905C12.336 11.5804 12.457 11.5699 12.5677 11.56C12.7677 11.5365 12.9643 11.5164 13.1567 11.4894C13.5318 11.4423 13.9067 11.3846 14.278 11.3134C14.4498 11.2795 14.6139 11.2461 14.778 11.209C14.9529 11.1747 15.1139 11.1376 15.2742 11.094C15.2886 11.0905 15.3062 11.0868 15.3204 11.0868C15.3242 11.0868 15.3276 11.0836 15.3276 11.0836C15.4994 11.0397 15.6635 10.9994 15.8242 10.9518C15.9956 10.9079 16.1529 10.8604 16.3097 10.8064L16.3704 10.7895C16.4349 10.7665 16.4955 10.7459 16.56 10.7254V10.7289C16.5673 10.7254 16.5745 10.7217 16.5814 10.7188L16.667 10.6915C16.778 10.6508 16.885 10.6104 16.9922 10.5701L17.0922 10.5294C17.1315 10.5161 17.1709 10.4992 17.2068 10.4856C17.2854 10.4513 17.3567 10.4211 17.4247 10.3941L17.5996 10.3131C17.6747 10.2826 17.7389 10.2522 17.8034 10.2188C17.9461 10.1511 18.0676 10.0902 18.1821 10.0258C18.3 9.96164 18.4143 9.89398 18.518 9.82631C18.5787 9.78886 18.6253 9.76187 18.6715 9.72844C18.7322 9.68778 18.7749 9.65386 18.818 9.62333C18.9608 9.52175 19.0928 9.41745 19.218 9.30575C19.7355 8.84207 20 8.35542 20 7.85849V5.26227C19.9966 5.24572 19.9966 5.23527 19.9966 5.2184C19.9855 5.02249 19.8999 4.8367 19.7534 4.69477L19.7535 4.69483Z" fill="#FF571A"/>
</svg>
