<svg width="20" height="20" viewBox="0 0 20 20" fill="none" xmlns="http://www.w3.org/2000/svg">
<path d="M16.3333 2.00004H15.2778V1.00004C15.2778 0.734824 15.1666 0.48047 14.9686 0.292933C14.7707 0.105397 14.5022 4.00543e-05 14.2222 4.00543e-05C13.9423 4.00543e-05 13.6738 0.105397 13.4758 0.292933C13.2779 0.48047 13.1667 0.734824 13.1667 1.00004V2.00004H6.83333V1.00004C6.83333 0.734824 6.72212 0.48047 6.52417 0.292933C6.32621 0.105397 6.05773 4.00543e-05 5.77778 4.00543e-05C5.49783 4.00543e-05 5.22934 0.105397 5.03139 0.292933C4.83343 0.48047 4.72222 0.734824 4.72222 1.00004V2.00004H3.66667C2.82681 2.00004 2.02136 2.31611 1.4275 2.87872C0.83363 3.44133 0.5 4.20439 0.5 5.00004V17C0.5 17.7957 0.83363 18.5588 1.4275 19.1214C2.02136 19.684 2.82681 20 3.66667 20H16.3333C17.1732 20 17.9786 19.684 18.5725 19.1214C19.1664 18.5588 19.5 17.7957 19.5 17V5.00004C19.5 4.20439 19.1664 3.44133 18.5725 2.87872C17.9786 2.31611 17.1732 2.00004 16.3333 2.00004ZM5.77778 15C5.56901 15 5.36493 14.9414 5.19134 14.8315C5.01776 14.7216 4.88246 14.5654 4.80257 14.3827C4.72268 14.2 4.70178 13.9989 4.7425 13.8049C4.78323 13.611 4.88377 13.4328 5.03139 13.2929C5.17901 13.1531 5.36709 13.0578 5.57185 13.0193C5.77661 12.9807 5.98884 13.0005 6.18172 13.0762C6.3746 13.1518 6.53945 13.28 6.65544 13.4445C6.77143 13.6089 6.83333 13.8023 6.83333 14C6.83333 14.2653 6.72212 14.5196 6.52417 14.7071C6.32621 14.8947 6.05773 15 5.77778 15ZM14.2222 15H10C9.72005 15 9.45156 14.8947 9.25361 14.7071C9.05565 14.5196 8.94444 14.2653 8.94444 14C8.94444 13.7348 9.05565 13.4805 9.25361 13.2929C9.45156 13.1054 9.72005 13 10 13H14.2222C14.5022 13 14.7707 13.1054 14.9686 13.2929C15.1666 13.4805 15.2778 13.7348 15.2778 14C15.2778 14.2653 15.1666 14.5196 14.9686 14.7071C14.7707 14.8947 14.5022 15 14.2222 15ZM17.3889 9.00004H2.61111V5.00004C2.61111 4.73482 2.72232 4.48047 2.92028 4.29293C3.11823 4.1054 3.38672 4.00004 3.66667 4.00004H4.72222V5.00004C4.72222 5.26526 4.83343 5.51961 5.03139 5.70715C5.22934 5.89468 5.49783 6.00004 5.77778 6.00004C6.05773 6.00004 6.32621 5.89468 6.52417 5.70715C6.72212 5.51961 6.83333 5.26526 6.83333 5.00004V4.00004H13.1667V5.00004C13.1667 5.26526 13.2779 5.51961 13.4758 5.70715C13.6738 5.89468 13.9423 6.00004 14.2222 6.00004C14.5022 6.00004 14.7707 5.89468 14.9686 5.70715C15.1666 5.51961 15.2778 5.26526 15.2778 5.00004V4.00004H16.3333C16.6133 4.00004 16.8818 4.1054 17.0797 4.29293C17.2777 4.48047 17.3889 4.73482 17.3889 5.00004V9.00004Z" fill="white"/>
</svg>
