<svg width="18" height="18" viewBox="0 0 18 18" fill="none" xmlns="http://www.w3.org/2000/svg">
<path d="M0.0349788 16.1124C-0.11733 16.5295 0.252519 16.9465 0.665588 16.8367L2.55761 16.4196C3.25362 16.2659 3.99301 16.3977 4.60195 16.7709C5.95027 17.561 7.51612 18 9.19074 18C14.084 17.9342 18.0856 13.7857 17.9986 8.84707C17.9117 3.88649 13.8665 -0.0863703 8.90802 0.00142766C4.34097 0.0891589 0.513353 3.75487 0.208884 8.36418C0.121958 9.68123 0.317654 10.9541 0.730871 12.0956C0.970105 12.732 0.970104 13.4126 0.752563 14.0491L0.0349788 16.1124ZM5.63251 6.36682H12.9967C13.4751 6.36682 13.8665 6.76183 13.8665 7.24472C13.8665 7.72761 13.4751 8.12262 12.9967 8.12262L5.63251 8.12278C5.15406 8.12278 4.76267 7.72776 4.76267 7.24487C4.76252 6.76183 5.15406 6.36682 5.63251 6.36682ZM5.63251 10.3177H10.2967C10.7751 10.3177 11.1665 10.7127 11.1665 11.1956C11.1665 11.6785 10.7751 12.0735 10.2967 12.0735H5.63251C5.15406 12.0735 4.76267 11.6785 4.76267 11.1956C4.76252 10.7127 5.15406 10.3177 5.63251 10.3177Z" fill="#808191"/>
</svg>
