<svg width="20" height="20" viewBox="0 0 20 20" fill="none" xmlns="http://www.w3.org/2000/svg">
<path d="M13.8834 1.66667C16.7167 1.66667 18.3334 3.26667 18.3334 6.10833V13.8917C18.3334 16.7167 16.7251 18.3333 13.8917 18.3333H6.10841C3.26675 18.3333 1.66675 16.7167 1.66675 13.8917V6.10833C1.66675 3.26667 3.26675 1.66667 6.10841 1.66667H13.8834ZM9.99175 6.25833C9.60841 6.25833 9.30008 6.56667 9.30008 6.95V9.3H6.94175C6.75841 9.3 6.58341 9.375 6.45008 9.5C6.32508 9.63333 6.25008 9.8075 6.25008 9.99166C6.25008 10.375 6.55841 10.6833 6.94175 10.6917H9.30008V13.05C9.30008 13.4333 9.60841 13.7417 9.99175 13.7417C10.3751 13.7417 10.6834 13.4333 10.6834 13.05V10.6917H13.0501C13.4334 10.6833 13.7417 10.375 13.7417 9.99166C13.7417 9.60833 13.4334 9.3 13.0501 9.3H10.6834V6.95C10.6834 6.56667 10.3751 6.25833 9.99175 6.25833Z" fill="#C5D0E6"/>
</svg>
