<svg width="18" height="18" viewBox="0 0 18 18" fill="none" xmlns="http://www.w3.org/2000/svg">
<path fill-rule="evenodd" clip-rule="evenodd" d="M4.33168 0H16.7944C17.4578 0 18.0004 0.542898 18.0004 1.20601V10.4379C18.0004 11.0623 17.5197 11.5799 16.9102 11.6383C16.6208 11.6664 16.4017 11.9074 16.4017 12.1983V14.0467C16.4017 14.2874 16.2586 14.4924 16.0324 14.5751C15.8063 14.6578 15.5647 14.5933 15.4095 14.4095L13.2453 11.8439C13.1345 11.7125 12.9868 11.644 12.8153 11.644H12.4725C12.3176 11.644 12.1913 11.5176 12.1913 11.3627V9.39047C12.1913 8.29781 11.3003 7.40648 10.2073 7.40648H3.40698C3.25207 7.40648 3.12573 7.28014 3.12573 7.12523V1.20606C3.12573 0.542629 3.66831 5.22652e-05 4.33174 5.22652e-05L4.33168 0ZM1.19773 8.19289H10.2071C10.8658 8.19289 11.4049 8.73169 11.4049 9.39042V14.2726C11.4049 14.9313 10.8657 15.4704 10.2071 15.4704H4.88173C4.73263 15.4704 4.58699 15.5066 4.49533 15.6239L2.79652 17.7894C2.61713 18.0184 2.3566 18.0412 2.14566 17.9503C1.93503 17.8598 1.80587 17.6634 1.80587 17.4339V16.0324C1.80587 15.7227 1.55302 15.4702 1.24336 15.4702H1.19753C0.5388 15.4702 0 14.9311 0 14.2724V9.39023C0 8.73149 0.5388 8.1927 1.19753 8.1927L1.19773 8.19289ZM2.59804 10.7309C3.14138 10.7309 3.58211 11.1716 3.58211 11.7153C3.58211 12.2586 3.14138 12.6994 2.59804 12.6994C2.05438 12.6994 1.61366 12.2586 1.61366 11.7153C1.61366 11.1716 2.05438 10.7309 2.59804 10.7309ZM5.70251 10.7309C6.24617 10.7309 6.68657 11.1716 6.68657 11.7153C6.68657 12.2586 6.24617 12.6994 5.70251 12.6994C5.15885 12.6994 4.71813 12.2586 4.71813 11.7153C4.71813 11.1716 5.15885 10.7309 5.70251 10.7309ZM8.80698 10.7309C9.35064 10.7309 9.79136 11.1716 9.79136 11.7153C9.79136 12.2586 9.35064 12.6994 8.80698 12.6994C8.26364 12.6994 7.82291 12.2586 7.82291 11.7153C7.82291 11.1716 8.26364 10.7309 8.80698 10.7309ZM6.06163 2.8687H15.0637C15.2566 2.8687 15.4145 3.02643 15.4145 3.21948V3.5949C15.4145 3.78764 15.2568 3.94568 15.0637 3.94568H6.06163C5.86874 3.94568 5.71085 3.78764 5.71085 3.5949V3.21948C5.71085 3.02659 5.86858 2.8687 6.06163 2.8687ZM6.06163 5.28353H12.5513C12.7441 5.28353 12.9018 5.44127 12.9018 5.63431V6.00974C12.9018 6.20247 12.7441 6.36021 12.5513 6.36021H6.06163C5.86874 6.36021 5.71085 6.20247 5.71085 6.00974V5.63431C5.71085 5.44142 5.86858 5.28353 6.06163 5.28353Z" fill="#EA942C"/>
</svg>
