<svg width="20" height="20" viewBox="0 0 20 20" fill="none" xmlns="http://www.w3.org/2000/svg">
<g clip-path="url(#clip0_3508_3524)">
<path d="M8.025 0L11.4385 9.96984L8.025 20C7.94063 20 7.85625 19.982 7.77773 19.9453L0.338672 16.423C0.132031 16.327 0 16.1199 0 15.8918V1.97109C0 0.882422 0.884375 0 1.975 0L8.025 0Z" fill="#FFE14D"/>
<path d="M18.0227 0C16.934 0 18.0249 5.27734 18.0249 5.27734L16.0496 11.6182V15.8918C16.0496 16.1199 15.9176 16.327 15.7109 16.423L8.27227 19.9453C8.19375 19.982 8.10938 20 8.025 20V0L18.0227 0Z" fill="#FFBB33"/>
<path d="M20 1.97305V11.0323C20 11.3559 19.7377 11.6183 19.4141 11.6183H16.0498V1.97094C16.0511 0.882149 16.934 0 18.0228 0H18.027C18.0332 0 18.039 0 18.0452 0.000429687C19.1266 0.00996094 20 0.889609 20 1.97305Z" fill="#FF9933"/>
<path d="M4.97886 5.13672C3.60851 5.13672 2.49363 6.2516 2.49363 7.62191V10.6593C2.49363 12.0297 3.60851 13.1445 4.97886 13.1445C6.34922 13.1445 7.46406 12.0296 7.46406 10.6593V7.62191C7.46406 6.2516 6.34922 5.13672 4.97886 5.13672ZM6.29218 10.6593C6.29218 11.3835 5.70304 11.9727 4.97886 11.9727C4.25468 11.9727 3.6655 11.3835 3.6655 10.6593V7.62191C3.6655 6.89773 4.25468 6.30859 4.97886 6.30859C5.70304 6.30859 6.29218 6.89777 6.29218 7.62191V10.6593Z" fill="#F8FAFC"/>
<path d="M11.246 7.85461C10.9881 7.85461 10.7715 7.86984 10.579 7.89883L10.8425 6.30859H12.875C13.1986 6.30859 13.4609 6.04625 13.4609 5.72266C13.4609 5.39906 13.1986 5.13672 12.875 5.13672H10.3456C10.0589 5.13672 9.81437 5.3441 9.76754 5.62688L9.26648 8.65129C9.23023 8.87004 9.31969 9.0909 9.49898 9.22133C9.67828 9.35176 9.91504 9.37023 10.1119 9.2684C10.4404 9.11633 10.6516 9.02848 11.2459 9.02648C11.6536 9.02648 12.0329 9.18957 12.3141 9.48574C12.5951 9.78168 12.7382 10.1698 12.717 10.5787C12.6772 11.3447 12.0445 11.9569 11.2766 11.9723C10.4571 11.9946 9.76625 11.3161 9.77285 10.4996C9.77285 10.176 9.51051 9.91363 9.18691 9.91363C8.86332 9.91363 8.60098 10.176 8.60098 10.4996C8.60098 10.6229 8.60957 10.7468 8.62644 10.8677C8.80883 12.1746 9.92988 13.1446 11.2462 13.1445C11.2641 13.1445 11.2822 13.1444 11.3002 13.144C12.6795 13.1162 13.8158 12.0161 13.8872 10.6395C13.9253 9.90645 13.6684 9.2102 13.164 8.67887C12.6667 8.15504 11.9676 7.85461 11.246 7.85461Z" fill="#F8FAFC"/>
</g>
<defs>
<clipPath id="clip0_3508_3524">
<rect width="20" height="20" fill="white"/>
</clipPath>
</defs>
</svg>
