<svg width="32" height="32" viewBox="0 0 32 32" fill="none" xmlns="http://www.w3.org/2000/svg">
<rect width="32" height="32" rx="4" fill="#80A9FF" fill-opacity="0.1"/>
<g clip-path="url(#clip0_3508_3511)">
<path d="M14.025 6L17.4385 15.9698L14.025 26C13.9406 26 13.8562 25.982 13.7777 25.9453L6.33867 22.423C6.13203 22.327 6 22.1199 6 21.8918V7.97109C6 6.88242 6.88438 6 7.975 6L14.025 6Z" fill="#FF8080"/>
<path d="M24.0227 6C22.934 6 24.0249 11.2773 24.0249 11.2773L22.0496 17.6182V21.8918C22.0496 22.1199 21.9176 22.327 21.7109 22.423L14.2723 25.9453C14.1938 25.982 14.1094 26 14.025 26V6L24.0227 6Z" fill="#FF3377"/>
<path d="M26 7.97305V17.0323C26 17.3559 25.7377 17.6183 25.4141 17.6183H22.0498V7.97094C22.0511 6.88215 22.934 6 24.0228 6H24.027C24.0332 6 24.039 6 24.0452 6.00043C25.1266 6.00996 26 6.88961 26 7.97305Z" fill="#CC295F"/>
<path d="M11.0259 11.1367C9.65551 11.1367 8.54066 12.2516 8.54066 13.6219V16.6593C8.54066 18.0297 9.65551 19.1445 11.0259 19.1445C12.3962 19.1445 13.5111 18.0296 13.5111 16.6593V13.6219C13.5111 12.2516 12.3962 11.1367 11.0259 11.1367ZM12.3392 16.6593C12.3392 17.3835 11.75 17.9727 11.0259 17.9727C10.3017 17.9727 9.71254 17.3835 9.71254 16.6593V13.6219C9.71254 12.8977 10.3017 12.3086 11.0259 12.3086C11.75 12.3086 12.3392 12.8978 12.3392 13.6219V16.6593Z" fill="#F8FAFC"/>
<path d="M19.3779 15.9551H19.0937C19.104 14.269 19.1102 12.3956 19.0896 12.1477C19.0504 11.678 18.7736 11.2966 18.3842 11.176C18.2001 11.119 17.7236 11.0452 17.2789 11.5909C16.8902 12.0679 14.9559 15.5623 14.5721 16.258C14.472 16.4395 14.4752 16.6604 14.5806 16.8389C14.686 17.0174 14.8779 17.127 15.0852 17.127H17.9138C17.9102 17.6326 17.9064 18.1194 17.9027 18.5536C17.8998 18.8772 18.1599 19.1418 18.4835 19.1445H18.4887C18.8099 19.1445 19.0717 18.8855 19.0745 18.5636C19.0767 18.3044 19.0811 17.7756 19.0859 17.127H19.3779C19.7015 17.127 19.9638 16.8646 19.9638 16.541C19.9638 16.2174 19.7014 15.9551 19.3779 15.9551ZM17.9215 15.9551H16.0802C16.7561 14.7431 17.5227 13.3936 17.93 12.7257C17.9339 13.3967 17.9293 14.6543 17.9215 15.9551Z" fill="#F8FAFC"/>
</g>
<defs>
<clipPath id="clip0_3508_3511">
<rect width="20" height="20" fill="white" transform="translate(6 6)"/>
</clipPath>
</defs>
</svg>
