<svg width="20" height="16" viewBox="0 0 20 16" fill="none" xmlns="http://www.w3.org/2000/svg">
<path d="M19.9635 6.44813L17.9395 0.952478C17.8495 0.708272 17.6021 0.544434 17.3242 0.544434L12.6928 0.5482C12.9995 0.645883 13.2655 0.839363 13.4275 1.10956C13.5502 1.31296 13.6022 1.53985 13.5908 1.76497L16.8188 1.7607L18.6574 6.72602L14.6669 6.72589C13.9309 6.72589 13.3335 7.27983 13.3335 7.96249V8.58071H6.66699V7.96249C6.66699 7.27999 6.06969 6.72589 5.33359 6.72589H1.34237L3.10438 1.77922L6.67347 1.77432C6.6602 1.54682 6.71084 1.31681 6.83417 1.11152C6.99419 0.842582 7.25683 0.651503 7.56022 0.552056L2.67205 0.555697C2.39411 0.555697 2.14677 0.720174 2.05673 0.963741L0.0341167 6.45586C0.0113723 6.51839 0 6.58393 0 6.64934V14.7636C0 15.4461 0.597297 16.0002 1.3334 16.0002H18.6666C19.4025 16.0002 20 15.4463 20 14.7636L19.9999 6.64934C19.9999 6.58142 19.9871 6.51399 19.9632 6.44845L19.9635 6.44813Z" fill="#347AE2"/>
</svg>
