<svg width="20" height="20" viewBox="0 0 20 20" fill="none" xmlns="http://www.w3.org/2000/svg">
<rect width="20" height="20" fill="#EBF2FC"/>
<path d="M19.9635 9.44813L17.9395 3.95248C17.8495 3.70827 17.6021 3.54443 17.3242 3.54443L12.6928 3.5482C12.9995 3.64588 13.2655 3.83936 13.4275 4.10956C13.5502 4.31296 13.6022 4.53985 13.5908 4.76497L16.8188 4.7607L18.6574 9.72602L14.6669 9.72589C13.9309 9.72589 13.3335 10.2798 13.3335 10.9625V11.5807H6.66699V10.9625C6.66699 10.28 6.06969 9.72589 5.33359 9.72589H1.34237L3.10438 4.77922L6.67347 4.77432C6.6602 4.54682 6.71084 4.31681 6.83417 4.11152C6.99419 3.84258 7.25683 3.6515 7.56022 3.55206L2.67205 3.5557C2.39411 3.5557 2.14677 3.72017 2.05673 3.96374L0.0341167 9.45586C0.0113723 9.51839 0 9.58393 0 9.64934V17.7636C0 18.4461 0.597297 19.0002 1.3334 19.0002H18.6666C19.4025 19.0002 20 18.4463 20 17.7636L19.9999 9.64934C19.9999 9.58142 19.9871 9.51399 19.9632 9.44845L19.9635 9.44813Z" fill="#347AE2"/>
<path d="M7.4178 4.41028C7.29975 4.60628 7.30719 4.84684 7.43513 5.03779L9.5658 8.19903C9.68778 8.37958 9.90115 8.48957 10.1311 8.48957C10.3611 8.48957 10.5745 8.37946 10.6965 8.19903L12.8272 5.03718C12.9551 4.84609 12.9625 4.60629 12.8445 4.40967C12.7278 4.21305 12.5045 4.09127 12.2618 4.09127H11.4652V1.61822C11.4652 1.27633 11.1673 1 10.7986 1H9.46522C9.09657 1 8.79861 1.27635 8.79861 1.61822V4.09127H8.00203C7.75861 4.09127 7.53522 4.21306 7.41787 4.4103L7.4178 4.41028Z" fill="#347AE2"/>
</svg>
