<svg width="40" height="40" viewBox="0 0 40 40" fill="none" xmlns="http://www.w3.org/2000/svg">
<path d="M12.3452 23.0011L11.417 23.5526C11.2901 23.6282 11.1848 23.7361 11.1116 23.8657C11.0385 23.9953 11 24.142 11 24.2913C11 24.4407 11.0385 24.5874 11.1116 24.717C11.1848 24.8466 11.2901 24.9545 11.417 25.0301L19.5736 29.8826C19.703 29.9595 19.8501 30 20 30C20.1499 30 20.2971 29.9595 20.4264 29.8826L28.5831 25.0301C28.71 24.9545 28.8153 24.8466 28.8884 24.717C28.9615 24.5874 29 24.4407 29 24.2913C29 24.142 28.9615 23.9953 28.8884 23.8657C28.8153 23.7361 28.71 23.6282 28.5831 23.5526L27.6549 23L21.2804 26.793C20.8921 27.024 20.4501 27.1458 20 27.1458C19.5499 27.1458 19.108 27.024 18.7197 26.793L12.3452 23.0011Z" fill="#C5D0E6"/>
<path d="M12.3452 19.0011L11.417 19.5526C11.2901 19.6281 11.1848 19.7361 11.1116 19.8657C11.0385 19.9952 11 20.142 11 20.2913C11 20.4407 11.0385 20.5874 11.1116 20.717C11.1848 20.8466 11.2901 20.9545 11.417 21.0301L19.5736 25.8826C19.703 25.9595 19.8501 26 20 26C20.1499 26 20.2971 25.9595 20.4264 25.8826L28.5831 21.0301C28.71 20.9545 28.8153 20.8466 28.8884 20.717C28.9615 20.5874 29 20.4407 29 20.2913C29 20.142 28.9615 19.9952 28.8884 19.8657C28.8153 19.7361 28.71 19.6281 28.5831 19.5526L27.6549 19L21.2804 22.793C20.8921 23.024 20.4501 23.1458 20 23.1458C19.5499 23.1458 19.108 23.024 18.7197 22.793L12.3452 19.0011Z" fill="#C5D0E6"/>
<path d="M20.4274 10.1137C20.2979 10.0393 20.1503 10 20 10C19.8497 10 19.7021 10.0393 19.5725 10.1137L11.417 14.7884C11.29 14.8611 11.1848 14.9651 11.1116 15.0899C11.0385 15.2147 11 15.3561 11 15.5C11 15.6439 11.0385 15.7852 11.1116 15.9101C11.1848 16.0349 11.29 16.1389 11.417 16.2116L19.5725 20.8863C19.7021 20.9607 19.8497 21 20 21C20.1503 21 20.2979 20.9607 20.4274 20.8863L28.583 16.2116C28.7099 16.1389 28.8152 16.0349 28.8883 15.9101C28.9615 15.7852 29 15.6439 29 15.5C29 15.3561 28.9615 15.2147 28.8883 15.0899C28.8152 14.9651 28.7099 14.8611 28.583 14.7884L20.4274 10.1137Z" fill="#C5D0E6"/>
</svg>
