<svg width="18" height="18" viewBox="0 0 18 18" fill="none" xmlns="http://www.w3.org/2000/svg">
<path fill-rule="evenodd" clip-rule="evenodd" d="M3.85625 1.15768C0.523847 2.17747 -0.664334 5.62389 0.352347 8.63917C1.98775 13.4744 9.00125 17.1 9.00125 17.1C9.00125 17.1 16.0668 13.4186 17.6492 8.63917C18.6649 5.62389 17.4692 2.17747 14.1368 1.15768C12.3858 0.623927 10.3799 0.965959 9.00125 1.97855C7.54397 0.937157 5.60915 0.620327 3.85625 1.15768ZM12.4002 3.77338C11.999 3.67068 11.5904 3.91272 11.4877 4.314C11.385 4.71528 11.627 5.12384 12.0283 5.22654C13.2514 5.53957 13.9584 6.35552 14.0396 7.14791C14.0819 7.55996 14.4502 7.85974 14.8622 7.81748C15.2743 7.77522 15.5741 7.40692 15.5318 6.99487C15.3689 5.40694 14.0478 4.19505 12.4002 3.77338Z" fill="#808191"/>
</svg>
