<svg width="24" height="24" viewBox="0 0 24 24" fill="none" xmlns="http://www.w3.org/2000/svg">
<path d="M19.54 19.0433H16.5789V14.4022C16.5789 13.2956 16.5567 11.8711 15.0344 11.8711C13.4911 11.8711 13.2556 13.0756 13.2556 14.3211V19.0433H10.2933V9.5H13.1378V10.8H13.1767C13.5744 10.0511 14.5411 9.25889 15.9856 9.25889C18.9856 9.25889 19.5411 11.2344 19.5411 13.8056L19.54 19.0433ZM6.94889 8.19444C6.72284 8.19474 6.49896 8.15041 6.29007 8.06401C6.08119 7.9776 5.89141 7.85082 5.73162 7.69093C5.57183 7.53104 5.44517 7.34118 5.3589 7.13224C5.27263 6.9233 5.22845 6.69938 5.22889 6.47333C5.22911 6.13315 5.3302 5.80067 5.51938 5.51794C5.70856 5.23521 5.97733 5.01493 6.2917 4.88495C6.60607 4.75497 6.95193 4.72113 7.28553 4.78771C7.61914 4.85429 7.92551 5.01831 8.1659 5.25901C8.40629 5.49971 8.56991 5.80629 8.63606 6.13998C8.70221 6.47367 8.66792 6.81948 8.53754 7.13369C8.40715 7.44789 8.18652 7.71638 7.90355 7.90519C7.62057 8.094 7.28796 8.19466 6.94778 8.19444M8.43222 19.0433H5.46333V9.5H8.43333L8.43222 19.0433ZM21.0222 2H3.97778C3.16 2 2.5 2.64444 2.5 3.44111V20.5589C2.5 21.3556 3.16 22 3.97556 22H21.0189C21.8333 22 22.5 21.3556 22.5 20.5589V3.44111C22.5 2.64556 21.8333 2 21.0178 2H21.0222Z" fill="#808191"/>
</svg>
