<svg width="16" height="16" viewBox="0 0 16 16" fill="none" xmlns="http://www.w3.org/2000/svg">
<path d="M11.1387 14.6929V13.6789H7.07157V9.69212C6.72414 9.62299 6.37672 9.60001 6.00876 9.60001C2.67748 9.59985 0 12.1117 0 15.2H11.2C11.1592 15.0616 11.1388 14.8774 11.1388 14.693L11.1387 14.6929Z" fill="#825EF6"/>
<path d="M10.3999 4.00008C10.3999 6.20922 8.609 8 6.3999 8C4.1908 8 2.3999 6.20922 2.3999 4.00008C2.3999 1.79078 4.1908 0 6.3999 0C8.609 0 10.3999 1.79078 10.3999 4.00008Z" fill="#825EF6"/>
<path d="M12.4901 15.2C12.5955 15.2 12.722 15.1355 12.8695 15.0066L15.7155 12.277C16.0948 11.9117 16.0948 11.3313 15.7155 10.966L12.8907 8.21499C12.743 8.08605 12.6166 8 12.5113 8C12.3426 8 12.2162 8.17196 12.2162 8.49428V10.4071L8 10.4073V12.8144H12.1951V14.7272C12.1949 15.0281 12.3215 15.2 12.4901 15.2L12.4901 15.2Z" fill="#825EF6"/>
</svg>
