<svg width="18" height="20" viewBox="0 0 18 20" fill="none" xmlns="http://www.w3.org/2000/svg">
<path d="M8.16046 1.29732C8.55452 0.68838 9.44548 0.68838 9.83954 1.29732L10.7217 2.66053C10.9789 3.05794 11.4795 3.22058 11.9211 3.05024L13.4361 2.46591C14.1128 2.2049 14.8336 2.72859 14.7945 3.45285L14.7069 5.07425C14.6814 5.54692 14.9908 5.97274 15.4482 6.09452L17.0173 6.51227C17.7182 6.69888 17.9935 7.54622 17.5362 8.10917L16.5123 9.36944C16.2138 9.73683 16.2138 10.2632 16.5123 10.6306L17.5362 11.8908C17.9935 12.4538 17.7182 13.3011 17.0173 13.4877L15.4482 13.9055C14.9908 14.0273 14.6814 14.4531 14.7069 14.9257L14.7945 16.5471C14.8336 17.2714 14.1128 17.7951 13.4361 17.5341L11.9211 16.9498C11.4795 16.7794 10.9789 16.9421 10.7217 17.3395L9.83954 18.7027C9.44548 19.3116 8.55452 19.3116 8.16046 18.7027L7.27828 17.3395C7.0211 16.9421 6.52052 16.7794 6.07887 16.9498L4.56389 17.5341C3.88716 17.7951 3.16637 17.2714 3.20549 16.5471L3.29306 14.9257C3.31859 14.4531 3.00922 14.0273 2.55179 13.9055L0.98269 13.4877C0.281783 13.3011 0.006464 12.4538 0.463825 11.8908L1.48771 10.6306C1.78619 10.2632 1.78619 9.73683 1.48771 9.36944L0.463825 8.10917C0.00646389 7.54622 0.281783 6.69888 0.98269 6.51227L2.55179 6.09452C3.00922 5.97274 3.31859 5.54692 3.29306 5.07425L3.20549 3.45285C3.16637 2.72859 3.88716 2.2049 4.56389 2.46591L6.07887 3.05024C6.52052 3.22058 7.0211 3.05794 7.27828 2.66053L8.16046 1.29732Z" fill="#0ECC8D"/>
</svg>
