<svg width="20" height="20" viewBox="0 0 20 20" fill="none" xmlns="http://www.w3.org/2000/svg">
<path d="M19.9979 1.21026C20.0396 0.543621 19.4562 -0.0396013 18.7897 0.00210844C14.1235 0.210371 9.95713 2.0436 6.87425 5.04334C4.6245 4.41841 1.24986 4.58497 0 7.75134C1.0416 8.04302 2.29146 8.58453 3.54133 9.41787C3.49962 9.50115 3.45805 9.58457 3.41634 9.66784C3.16637 10.1261 3.29136 10.6677 3.6246 11.001L8.99902 16.3754C9.37398 16.7504 9.91563 16.8336 10.3322 16.5837C10.4154 16.542 10.4989 16.5004 10.5821 16.4587C11.4153 17.7085 11.957 18.9584 12.2487 20C15.4566 18.6252 15.5816 15.3755 14.9567 13.1258C17.9563 10.0428 19.7897 5.87654 19.9979 1.21026ZM12.9155 3.66842C13.8736 2.71024 15.3735 2.71024 16.3318 3.66842C17.29 4.6266 17.29 6.12644 16.3318 7.08476C15.3736 8.04295 13.8738 8.04295 12.9155 7.08476C11.9571 6.12644 11.9988 4.58489 12.9155 3.66842Z" fill="#FF4401"/>
</svg>
