<svg width="18" height="18" viewBox="0 0 18 18" fill="none" xmlns="http://www.w3.org/2000/svg">
<path fill-rule="evenodd" clip-rule="evenodd" d="M0.666748 7.8916C0.666748 3.90138 3.86703 0.666666 7.81478 0.666666C9.71056 0.666666 11.5287 1.42786 12.8692 2.7828C14.2097 4.13774 14.9628 5.97543 14.9628 7.8916C14.9628 11.8818 11.7625 15.1165 7.81478 15.1165C3.86703 15.1165 0.666748 11.8818 0.666748 7.8916ZM14.8445 13.7119L16.9734 15.4303H17.0104C17.4411 15.8657 17.4411 16.5715 17.0104 17.0068C16.5797 17.4422 15.8814 17.4422 15.4507 17.0068L13.684 14.9821C13.517 14.8138 13.4231 14.5853 13.4231 14.347C13.4231 14.1087 13.517 13.8801 13.684 13.7119C14.0061 13.392 14.5224 13.392 14.8445 13.7119Z" fill="#C5D0E6"/>
</svg>
