<svg width="32" height="32" viewBox="0 0 32 32" fill="none" xmlns="http://www.w3.org/2000/svg">
<rect width="32" height="32" rx="4" fill="#80A9FF" fill-opacity="0.1"/>
<g clip-path="url(#clip0_3508_3487)">
<path d="M14.025 6L17.4385 15.9698L14.025 26C13.9406 26 13.8562 25.982 13.7777 25.9453L6.33867 22.423C6.13203 22.327 6 22.1199 6 21.8918V7.97109C6 6.88242 6.88438 6 7.975 6L14.025 6Z" fill="#6BB324"/>
<path d="M24.0227 6C22.934 6 24.0249 11.2773 24.0249 11.2773L22.0496 17.6182V21.8918C22.0496 22.1199 21.9176 22.327 21.7109 22.423L14.2723 25.9453C14.1938 25.982 14.1094 26 14.025 26V6L24.0227 6Z" fill="#34A853"/>
<path d="M26 7.97305V17.0323C26 17.3559 25.7377 17.6183 25.4141 17.6183H22.0498V7.97094C22.0511 6.88215 22.934 6 24.0228 6H24.027C24.0332 6 24.039 6 24.0452 6.00043C25.1266 6.00996 26 6.88961 26 7.97305Z" fill="#6BB324"/>
<path d="M11.007 11.1172C9.63067 11.1172 8.51094 12.2369 8.51094 13.6132V16.668C8.51094 18.0443 9.63067 19.1641 11.007 19.1641C12.3833 19.1641 13.503 18.0443 13.503 16.668V13.6132C13.503 12.2369 12.3833 11.1172 11.007 11.1172ZM12.3312 16.668C12.3312 17.3982 11.7372 17.9922 11.007 17.9922C10.2768 17.9922 9.68282 17.3982 9.68282 16.668V13.6132C9.68282 12.8831 10.2768 12.2891 11.007 12.2891C11.7372 12.2891 12.3312 12.8831 12.3312 13.6132V16.668Z" fill="#F8FAFC"/>
<path d="M18.958 17.9766C18.9555 17.9766 18.953 17.9766 18.9505 17.9767C18.124 17.9871 17.2407 17.9933 16.5883 17.992C16.968 17.4902 17.5507 16.7054 18.4018 15.4892C18.9081 14.7359 19.2037 14.1721 19.258 13.4286C19.258 12.1541 18.2211 11.1172 16.9466 11.1172C15.8446 11.1172 14.8908 11.9011 14.6786 12.9812C14.6162 13.2987 14.8231 13.6067 15.1406 13.6691C15.4582 13.7314 15.7661 13.5245 15.8285 13.207C15.933 12.6751 16.4032 12.2891 16.9466 12.2891C17.622 12.2824 18.1939 12.9136 18.0615 13.5839C17.9734 13.9407 17.765 14.3554 17.4418 14.8173C16.3716 16.3464 15.1456 17.9516 15.0802 18.0469C15.0082 18.1516 14.8399 18.3968 14.9334 18.7008C14.9928 18.8939 15.1397 19.0423 15.3364 19.1079C15.4158 19.1343 15.5089 19.1655 16.7943 19.1655C17.305 19.1655 18.0041 19.1606 18.9652 19.1485C19.2888 19.1444 19.5478 18.8788 19.5438 18.5552C19.5397 18.2341 19.2781 17.9766 18.958 17.9766Z" fill="#F8FAFC"/>
</g>
<defs>
<clipPath id="clip0_3508_3487">
<rect width="20" height="20" fill="white" transform="translate(6 6)"/>
</clipPath>
</defs>
</svg>
