<svg width="14" height="14" viewBox="0 0 14 14" fill="none" xmlns="http://www.w3.org/2000/svg">
<path d="M13.7624 5.82574L7.41532 0.50566C7.21666 0.339704 6.9403 0.302892 6.70461 0.412292C6.46993 0.521247 6.31965 0.756376 6.31965 1.01468V3.58655C2.56592 3.93628 0 6.911 0 11.0331C0 11.8022 0.0916655 12.5192 0.272322 13.1641C0.352977 13.4511 0.615626 13.65 0.914572 13.65H0.915614C1.21502 13.6497 1.47722 13.4499 1.55729 13.1622C2.19196 10.8722 3.94866 9.40919 6.31961 9.15048V11.6549C6.31961 11.9132 6.4699 12.1483 6.70456 12.2577C6.93983 12.3671 7.21618 12.3302 7.41527 12.1644L13.7623 6.8443C13.9129 6.71798 14 6.53169 14 6.33529C14 6.1386 13.913 5.95205 13.7624 5.82574ZM11.0804 6.18214C11.0143 6.26423 10.9175 6.30713 10.8194 6.30713C10.7463 6.30713 10.6734 6.28353 10.6116 6.23469L8.2783 4.37829C8.13426 4.26355 8.11104 4.05439 8.22562 3.91115C8.34095 3.76716 8.55063 3.7443 8.69424 3.8583L11.0276 5.71471C11.1716 5.82901 11.195 6.03815 11.0804 6.18214Z" fill="#393E4F"/>
</svg>
