<svg width="18" height="18" viewBox="0 0 18 18" fill="none" xmlns="http://www.w3.org/2000/svg">
<g id="Share">
<path id="Vector" d="M17.6945 7.49022L9.53398 0.650116C9.27856 0.436744 8.92325 0.389416 8.62021 0.530073C8.31848 0.670158 8.12527 0.972466 8.12527 1.30457V4.61127C3.29904 5.06091 0 8.88555 0 14.1855C0 15.1742 0.117856 16.096 0.350128 16.9253C0.453828 17.2942 0.791519 17.5499 1.17588 17.5499H1.17722C1.56217 17.5496 1.89928 17.2927 2.00224 16.9228C2.81824 13.9785 5.07685 12.0975 8.12521 11.7649V14.9849C8.12521 15.317 8.31845 15.6193 8.62015 15.7599C8.92264 15.9006 9.27795 15.8531 9.53391 15.6399L17.6944 8.7998C17.8881 8.63739 18 8.39787 18 8.14535C18 7.89247 17.8881 7.65262 17.6945 7.49022ZM14.2462 7.94845C14.1613 8.05399 14.0367 8.10915 13.9106 8.10915C13.8167 8.10915 13.7229 8.0788 13.6435 8.01601L10.6435 5.62921C10.4583 5.48168 10.4285 5.21278 10.5758 5.0286C10.7241 4.84347 10.9937 4.81409 11.1783 4.96066L14.1783 7.34746C14.3635 7.49442 14.3936 7.76331 14.2462 7.94845Z" fill="#C5D0E6"/>
</g>
</svg>
