<svg width="32" height="32" viewBox="0 0 32 32" fill="none" xmlns="http://www.w3.org/2000/svg">
<rect width="32" height="32" rx="4" fill="#80A9FF" fill-opacity="0.1"/>
<g clip-path="url(#clip0_3508_3499)">
<path d="M14.025 6L17.4385 15.9698L14.025 26C13.9406 26 13.8562 25.982 13.7777 25.9453L6.33867 22.423C6.13203 22.327 6 22.1199 6 21.8918V7.97109C6 6.88242 6.88438 6 7.975 6L14.025 6Z" fill="#AA80FF"/>
<path d="M24.0227 6C22.934 6 24.0249 11.2773 24.0249 11.2773L22.0496 17.6182V21.8918C22.0496 22.1199 21.9176 22.327 21.7109 22.423L14.2723 25.9453C14.1938 25.982 14.1094 26 14.025 26V6L24.0227 6Z" fill="#9966FF"/>
<path d="M26 7.97305V17.0323C26 17.3559 25.7377 17.6183 25.4141 17.6183H22.0498V7.97094C22.0511 6.88215 22.934 6 24.0228 6H24.027C24.0332 6 24.039 6 24.0452 6.00043C25.1266 6.00996 26 6.88961 26 7.97305Z" fill="#7733FF"/>
<path d="M19.2729 13.4316C19.2729 12.1662 18.2434 11.1367 16.978 11.1367C15.8838 11.1367 14.9368 11.9151 14.7261 12.9875C14.6638 13.305 14.8706 13.613 15.1882 13.6754C15.5057 13.7377 15.8137 13.5309 15.8761 13.2133C15.979 12.6891 16.4425 12.3086 16.978 12.3086C17.5973 12.3086 18.1011 12.8124 18.1011 13.4316C18.1011 14.0509 17.5973 14.5547 16.978 14.5547C16.6544 14.5547 16.3921 14.817 16.3921 15.1406C16.3921 15.4642 16.6544 15.7266 16.978 15.7266C17.5973 15.7266 18.1011 16.2304 18.1011 16.8496C18.1011 17.4689 17.5973 17.9727 16.978 17.9727C16.3658 17.9767 15.8491 17.4609 15.855 16.8496C15.855 16.526 15.5926 16.2637 15.269 16.2637C14.9454 16.2637 14.6831 16.526 14.6831 16.8496C14.6831 16.9564 14.6905 17.0639 14.7052 17.1689C14.8623 18.2952 15.8395 19.1445 16.978 19.1445C18.2434 19.1445 19.2729 18.115 19.2729 16.8496C19.2729 16.1714 18.977 15.5611 18.5076 15.1406C18.977 14.7201 19.2729 14.1099 19.2729 13.4316Z" fill="#E2E2EB"/>
<path d="M10.9489 11.1367C9.57851 11.1367 8.46363 12.2516 8.46363 13.6219V16.6593C8.46363 18.0297 9.57851 19.1445 10.9489 19.1445C12.3192 19.1445 13.4341 18.0296 13.4341 16.6593V13.6219C13.4341 12.2516 12.3192 11.1367 10.9489 11.1367ZM12.2622 16.6593C12.2622 17.3835 11.673 17.9727 10.9489 17.9727C10.2247 17.9727 9.63551 17.3835 9.63551 16.6593V13.6219C9.63551 12.8977 10.2247 12.3086 10.9489 12.3086C11.673 12.3086 12.2622 12.8978 12.2622 13.6219V16.6593Z" fill="#F4F4F7"/>
</g>
<defs>
<clipPath id="clip0_3508_3499">
<rect width="20" height="20" fill="white" transform="translate(6 6)"/>
</clipPath>
</defs>
</svg>
